Coordinates
version=1
nRows=11
nColumns=40
inDegrees=yes

Units are S.I. units (second, meters, Newtons, ...)
If the header above contains a line with 'inDegrees', this indicates whether rotational values are in degrees (yes) or radians (no).

endheader
time	pelvis_tilt	pelvis_list	pelvis_rotation	pelvis_tx	pelvis_ty	pelvis_tz	hip_flexion_r	hip_adduction_r	hip_rotation_r	knee_angle_r	knee_angle_r_beta	ankle_angle_r	subtalar_angle_r	mtp_angle_r	hip_flexion_l	hip_adduction_l	hip_rotation_l	knee_angle_l	knee_angle_l_beta	ankle_angle_l	subtalar_angle_l	mtp_angle_l	lumbar_extension	lumbar_bending	lumbar_rotation	arm_flex_r	arm_add_r	arm_rot_r	elbow_flex_r	pro_sup_r	wrist_flex_r	wrist_dev_r	arm_flex_l	arm_add_l	arm_rot_l	elbow_flex_l	pro_sup_l	wrist_flex_l	wrist_dev_l
      7.78300000	    -19.86376538	     -1.23376574	      2.92451840	      0.08857129	      1.28495133	     -0.00821494	     78.71033268	     -2.23697163	      6.98503545	     76.30204431	      1.33172190	      5.52286920	    -26.69661129	      0.00000000	     49.74652113	    -13.48813564	     -5.56370904	     67.93594825	      1.18570598	     -3.15101005	    -12.44093351	      0.00000000	    -47.30992677	     -7.31046307	      4.59817426	     54.99689804	     22.09636228	    -42.11251208	     54.59302347	      1.01019471	      0.00000000	      0.00000000	     53.41502401	     10.98549987	    -27.97153576	     44.55091194	      3.89101665	      0.00000000	      0.00000000
      7.80000000	    -19.72900890	     -0.97320622	      3.86894757	      0.08844846	      1.28541533	     -0.00934291	     76.74476650	     -3.15350701	      6.62578060	     72.81137560	      1.27079824	      4.54601660	    -27.25161597	      0.00000000	     51.25043931	    -12.98407667	     -4.63842430	     71.70328679	      1.25145844	     -2.79340424	    -11.88712123	      0.00000000	    -47.55657390	     -7.11612885	      3.79983114	     54.97618353	     22.09801985	    -42.47289215	     54.62859486	      1.00850839	      0.00000000	      0.00000000	     53.54358266	     11.12361490	    -28.02805863	     44.55190211	      3.96168079	      0.00000000	      0.00000000
      7.81700000	    -19.61496303	     -0.77450832	      4.86545775	      0.08823232	      1.28586946	     -0.01052147	     74.65249590	     -4.09034710	      6.14866788	     69.26283891	      1.20886459	      3.36768950	    -27.73120092	      0.00000000	     52.83249167	    -12.44777946	     -3.67050361	     75.38464704	      1.31571030	     -2.43689179	    -11.40691642	      0.00000000	    -47.78491599	     -6.85263852	      3.00467665	     54.92800082	     22.06701477	    -42.72910296	     54.64342773	      1.00398969	      0.00000000	      0.00000000	     53.64570840	     11.22509002	    -28.00515246	     44.57678400	      4.05679033	      0.00000000	      0.00000000
      7.83300000	    -19.50994383	     -0.58527073	      5.90032280	      0.08795953	      1.28636057	     -0.01183602	     72.41184378	     -5.06422879	      5.61193916	     65.62127734	      1.14530735	      1.93561242	    -28.06131517	      0.00000000	     54.48115228	    -11.86364890	     -2.73316422	     78.98953870	      1.37862752	     -2.10279903	    -10.98573545	      0.00000000	    -48.00652582	     -6.55481565	      2.21286131	     54.83053914	     21.99781017	    -42.92421628	     54.65929856	      0.99930889	      0.00000000	      0.00000000	     53.74445414	     11.33226541	    -27.95309675	     44.55203408	      4.13713019	      0.00000000	      0.00000000
      7.85000000	    -19.44714155	     -0.46826130	      6.96032523	      0.08759683	      1.28668787	     -0.01319881	     70.13563494	     -6.03469374	      4.96399701	     62.00775100	      1.08223942	      0.28969542	    -28.31435211	      0.00000000	     56.26926294	    -11.24493109	     -1.71532211	     82.46630963	      1.43930863	     -1.87815538	    -10.56574862	      0.00000000	    -48.14872719	     -6.16083199	      1.46501084	     54.72707068	     21.91128421	    -43.11890212	     54.66340214	      0.99237912	      0.00000000	      0.00000000	     53.79383030	     11.43405901	    -27.87631974	     44.53447421	      4.20592735	      0.00000000	      0.00000000
      7.86700000	    -19.44860353	     -0.32331308	      7.98611026	      0.08711668	      1.28697306	     -0.01451779	     67.85037762	     -6.95915397	      4.43046179	     58.39623329	      1.01920654	     -1.65151224	    -28.25840311	      0.00000000	     58.16712292	    -10.59171335	     -0.80820725	     85.78926814	      1.49730519	     -1.67585210	    -10.20502404	      0.00000000	    -48.21527057	     -5.78656941	      0.74304576	     54.57450821	     21.79776747	    -43.29911541	     54.68436169	      0.98575263	      0.00000000	      0.00000000	     53.82722507	     11.52758708	    -27.74523207	     44.48590919	      4.26163538	      0.00000000	      0.00000000
      7.88300000	    -19.49333355	     -0.22806496	      9.03550474	      0.08651687	      1.28716012	     -0.01579866	     65.51676228	     -7.86184661	      3.83736161	     54.78492027	      0.95617724	     -3.77299414	    -28.09030623	      0.00000000	     60.20125588	     -9.88867911	      0.13082569	     88.96551868	      1.55274122	     -1.49818584	     -9.85682822	      0.00000000	    -48.21687282	     -5.35607943	      0.05408220	     54.39621772	     21.66926941	    -43.44423925	     54.73100164	      0.98326193	      0.00000000	      0.00000000	     53.84421986	     11.62638727	    -27.59308573	     44.42367221	      4.29760571	      0.00000000	      0.00000000
      7.90000000	    -19.55163947	     -0.27668533	     10.13987163	      0.08602161	      1.28719737	     -0.01722668	     63.20504191	     -8.76819331	      2.94236630	     51.36302497	      0.89645390	     -6.10074805	    -28.05541876	      0.00000000	     62.33176806	     -9.14932998	      1.19680901	     91.95203599	      1.60486578	     -1.31526662	     -9.51123205	      0.00000000	    -48.15121538	     -4.75209313	     -0.57971710	     54.18836341	     21.54322616	    -43.60306198	     54.73107462	      0.97587688	      0.00000000	      0.00000000	     53.80153970	     11.73231233	    -27.47971578	     44.35362726	      4.46318988	      0.00000000	      0.00000000
      7.91700000	    -19.65789585	     -0.14494414	     11.05250586	      0.08554595	      1.28723290	     -0.01844718	     61.04841171	     -9.67661972	      2.20463370	     48.22017942	      0.84160090	     -8.60509009	    -27.38184610	      0.00000000	     64.41411282	     -8.42439587	      1.91589237	     94.67556328	      1.65240030	     -1.01075087	     -9.31810715	      0.00000000	    -48.09909175	     -4.44068094	     -1.19172117	     54.00155166	     21.40906787	    -43.80782364	     54.80876517	      0.95599343	      0.00000000	      0.00000000	     53.81012830	     11.83269978	    -27.27712719	     44.23343630	      4.60913748	      0.00000000	      0.00000000
      7.93300000	    -19.78498010	     -0.24091525	     12.06590969	      0.08498931	      1.28727621	     -0.01962198	     58.85717745	    -10.54523416	      0.99197466	     45.18145575	      0.78856516	    -11.09455934	    -27.01233771	      0.00000000	     66.66967967	     -7.57946068	      2.98015921	     97.18432099	      1.69618638	     -0.70222847	     -9.07944628	      0.00000000	    -47.99907572	     -3.89834536	     -1.75657186	     53.83291145	     21.30857799	    -43.95363704	     54.85392681	      0.95839835	      0.00000000	      0.00000000	     53.84420497	     11.94383226	    -27.08682183	     44.14812671	      4.69476675	      0.00000000	      0.00000000
      7.95000000	    -19.88919207	     -0.34943594	     13.06562341	      0.08448059	      1.28725928	     -0.02076930	     56.76210705	    -11.35739100	     -0.25825020	     42.52526605	      0.74220591	    -13.51942952	    -26.65139740	      0.00000000	     68.86277661	     -6.72217423	      3.94753766	     99.39982424	      1.73485421	     -0.32007058	     -8.83174274	      0.00000000	    -47.89084130	     -3.32050454	     -2.29975087	     53.65493759	     21.17691791	    -44.04829246	     54.88201796	      0.95347306	      0.00000000	      0.00000000	     53.83864078	     11.99909322	    -26.85349391	     44.06503535	      4.62307250	      0.00000000	      0.00000000
